<?xml version="1.0" encoding="UTF-8"?>
<svg version="1.1" xmlns="http://www.w3.org/2000/svg" width="580" height="386">
<path d="M0 0 C191.4 0 382.8 0 580 0 C580 127.38 580 254.76 580 386 C388.6 386 197.2 386 0 386 C0 258.62 0 131.24 0 0 Z " fill="#FCFEFD" transform="translate(0,0)"/>
<path d="M0 0 C2.1547446 1.01166375 4.32816967 1.80412592 6.59692383 2.52148438 C7.33168945 2.75738281 8.06645508 2.99328125 8.82348633 3.23632812 C9.5118457 3.45417969 10.20020508 3.67203125 10.90942383 3.89648438 C12.90942383 4.56315104 14.90942383 5.22981771 16.90942383 5.89648438 C16.90942383 6.55648437 16.90942383 7.21648437 16.90942383 7.89648438 C17.89942383 7.89648438 18.88942383 7.89648438 19.90942383 7.89648438 C19.90942383 8.55648437 19.90942383 9.21648437 19.90942383 9.89648438 C20.56942383 9.89648438 21.22942383 9.89648438 21.90942383 9.89648438 C21.90942383 10.55648437 21.90942383 11.21648437 21.90942383 11.89648438 C23.22942383 11.89648438 24.54942383 11.89648438 25.90942383 11.89648438 C25.90942383 12.55648437 25.90942383 13.21648437 25.90942383 13.89648438 C27.36348633 14.08210938 27.36348633 14.08210938 28.84692383 14.27148438 C29.85754883 14.47773438 30.86817383 14.68398437 31.90942383 14.89648438 C32.23942383 15.55648437 32.56942383 16.21648437 32.90942383 16.89648438 C34.55993671 18.0128259 34.55993671 18.0128259 36.47192383 19.02148438 C37.60629883 19.64023438 38.74067383 20.25898438 39.90942383 20.89648438 C39.90942383 21.55648437 39.90942383 22.21648437 39.90942383 22.89648438 C40.89942383 22.89648438 41.88942383 22.89648438 42.90942383 22.89648438 C42.90942383 23.55648437 42.90942383 24.21648437 42.90942383 24.89648438 C43.69317383 24.97898438 44.47692383 25.06148437 45.28442383 25.14648438 C47.90942383 25.89648438 47.90942383 25.89648438 49.03442383 27.89648438 C49.46754883 28.88648438 49.46754883 28.88648438 49.90942383 29.89648438 C50.89942383 30.22648437 51.88942383 30.55648437 52.90942383 30.89648438 C54.59692383 32.33398438 54.59692383 32.33398438 55.90942383 33.89648438 C55.90942383 34.55648437 55.90942383 35.21648437 55.90942383 35.89648438 C56.54879883 36.16460937 57.18817383 36.43273437 57.84692383 36.70898438 C59.90942383 37.89648438 59.90942383 37.89648438 60.90942383 40.89648438 C61.56942383 40.89648438 62.22942383 40.89648438 62.90942383 40.89648438 C62.90942383 41.55648437 62.90942383 42.21648437 62.90942383 42.89648438 C63.56942383 42.89648438 64.22942383 42.89648438 64.90942383 42.89648438 C67.45920197 45.72259315 69.65744794 48.83017792 71.90942383 51.89648438 C72.34254883 52.4765625 72.77567383 53.05664062 73.22192383 53.65429688 C75.37139046 56.67303311 76.4758212 59.21086201 76.90942383 62.89648438 C77.89942383 63.22648437 78.88942383 63.55648437 79.90942383 63.89648438 C80.85864258 65.89257813 80.85864258 65.89257813 81.59692383 68.33398438 C81.84829102 69.13707031 82.0996582 69.94015625 82.35864258 70.76757812 C82.90942383 72.89648437 82.90942383 72.89648437 82.90942383 74.89648438 C78.24470613 73.34157848 76.62921134 69.43035147 73.94458008 65.46289062 C71.99360127 63.00263519 70.80230546 61.97727013 67.90942383 60.89648438 C67.90942383 59.90648437 67.90942383 58.91648437 67.90942383 57.89648438 C66.58942383 57.56648438 65.26942383 57.23648438 63.90942383 56.89648438 C63.90942383 56.23648438 63.90942383 55.57648438 63.90942383 54.89648438 C63.31129883 54.81398437 62.71317383 54.73148438 62.09692383 54.64648438 C59.2801011 53.68071658 58.43143251 52.4077987 56.90942383 49.89648438 C56.90942383 49.23648438 56.90942383 48.57648438 56.90942383 47.89648438 C55.98129883 47.77273437 55.05317383 47.64898437 54.09692383 47.52148438 C50.90942383 46.89648438 50.90942383 46.89648438 47.90942383 44.89648438 C47.90942383 44.23648438 47.90942383 43.57648438 47.90942383 42.89648438 C44.88971595 41.3301873 41.82291968 40.02023274 38.65942383 38.77148438 C37.76739258 38.41828125 36.87536133 38.06507813 35.95629883 37.70117188 C34.9430957 37.30285156 34.9430957 37.30285156 33.90942383 36.89648438 C33.90942383 36.23648438 33.90942383 35.57648438 33.90942383 34.89648438 C33.39379883 34.79335937 32.87817383 34.69023437 32.34692383 34.58398438 C29.73940849 33.84853133 27.34927978 32.79545628 24.87036133 31.71289062 C21.28621036 30.22068435 17.613856 29.05139558 13.90942383 27.89648438 C12.78536133 27.54070312 11.66129883 27.18492187 10.50317383 26.81835938 C4.0614322 24.86381384 -1.37064229 23.51611076 -8.09057617 23.89648438 C-9.08057617 23.56648438 -10.07057617 23.23648438 -11.09057617 22.89648438 C-13.25678243 22.85182033 -15.42426112 22.85745167 -17.59057617 22.89648438 C-23.75724284 23.00759549 -23.75724284 23.00759549 -27.09057617 21.89648438 C-27.75057617 22.55648437 -28.41057617 23.21648437 -29.09057617 23.89648438 C-26.78057617 25.21648437 -24.47057617 26.53648437 -22.09057617 27.89648438 C-22.46557617 29.83398438 -22.46557617 29.83398438 -23.09057617 31.89648438 C-25.55902266 33.13070762 -27.15338607 32.96244396 -29.90307617 32.89648438 C-33.48992697 32.86066703 -36.5864308 33.10805167 -40.09057617 33.89648438 C-41.71460631 34.05274844 -43.33978266 34.19728102 -44.96557617 34.33398438 C-49.20685504 34.72983707 -53.00571466 35.66331864 -57.09057617 36.89648438 C-58.24557617 37.04085937 -59.40057617 37.18523437 -60.59057617 37.33398438 C-70.55821881 38.93592694 -79.83932526 44.86095484 -87.32885742 51.40820312 C-90.43668187 54.03366014 -93.5602144 56.38466621 -97.43823242 57.68164062 C-100.8532411 59.24580513 -102.81623517 61.36986031 -105.40307617 64.08398438 C-106.37423323 65.0789395 -107.34689609 66.07242702 -108.32104492 67.06445312 C-109.69196289 68.46630859 -109.69196289 68.46630859 -111.09057617 69.89648438 C-116.34857008 75.15447829 -120.8056202 78.12583535 -128.09057617 79.89648438 C-128.09057617 80.55648437 -128.09057617 81.21648437 -128.09057617 81.89648438 C-129.08057617 81.89648438 -130.07057617 81.89648438 -131.09057617 81.89648438 C-131.09057617 82.55648437 -131.09057617 83.21648437 -131.09057617 83.89648438 C-133.18041992 85.41210937 -133.18041992 85.41210937 -136.02807617 87.14648438 C-137.02709961 87.76523438 -138.02612305 88.38398438 -139.05541992 89.02148438 C-140.05702148 89.64023438 -141.05862305 90.25898438 -142.09057617 90.89648438 C-143.76340568 91.97027687 -145.43075218 93.05269591 -147.09057617 94.14648438 C-147.79182617 94.60539062 -148.49307617 95.06429687 -149.21557617 95.53710938 C-151.12028469 96.81807048 -151.12028469 96.81807048 -152.51635742 98.48242188 C-154.64769044 100.39691953 -156.48474891 100.67814314 -159.27807617 101.27148438 C-164.46509116 102.47629226 -169.56056501 103.84726878 -174.65307617 105.39648438 C-175.34361084 105.59806152 -176.03414551 105.79963867 -176.74560547 106.00732422 C-180.29450912 107.10030753 -182.6547036 108.07513701 -185.09057617 110.89648438 C-185.75057617 110.89648438 -186.41057617 110.89648438 -187.09057617 110.89648438 C-187.09057617 110.23648438 -187.09057617 109.57648438 -187.09057617 108.89648438 C-188.20432617 109.36054688 -188.20432617 109.36054688 -189.34057617 109.83398438 C-193.56466471 111.03080946 -197.5281664 111.3650736 -201.89526367 111.65039062 C-205.1763474 111.85595025 -205.1763474 111.85595025 -208.72729492 112.50195312 C-214.2292352 113.20701174 -219.56172246 112.36906033 -225.02807617 111.64648438 C-226.67610229 111.43668945 -226.67610229 111.43668945 -228.35742188 111.22265625 C-253.19257148 107.98652252 -253.19257148 107.98652252 -261.09057617 103.89648438 C-263.55787312 103.21300988 -263.55787312 103.21300988 -265.90307617 102.83398438 C-268.23510742 102.42382812 -268.23510742 102.42382812 -270.09057617 101.89648438 C-270.42057617 101.23648438 -270.75057617 100.57648438 -271.09057617 99.89648438 C-273.04188556 98.99985915 -275.02740186 98.17677115 -277.02807617 97.39648438 C-282.87726893 95.10979162 -282.87726893 95.10979162 -285.09057617 92.89648438 C-286.57557617 92.40148437 -286.57557617 92.40148437 -288.09057617 91.89648438 C-288.09057617 91.23648438 -288.09057617 90.57648438 -288.09057617 89.89648438 C-288.66678711 89.62578125 -289.24299805 89.35507813 -289.83666992 89.07617188 C-292.11493396 87.88373559 -294.09102761 86.55510816 -296.15307617 85.02148438 C-296.82467773 84.5290625 -297.4962793 84.03664063 -298.18823242 83.52929688 C-300.21008427 81.79390864 -301.67139015 80.1512659 -303.09057617 77.89648438 C-303.09057617 76.90648437 -303.09057617 75.91648437 -303.09057617 74.89648438 C-303.75057617 74.89648438 -304.41057617 74.89648438 -305.09057617 74.89648438 C-304.76057617 73.57648438 -304.43057617 72.25648438 -304.09057617 70.89648438 C-303.30682617 71.45335937 -302.52307617 72.01023437 -301.71557617 72.58398438 C-294.12444467 77.59202252 -285.87255558 80.85538267 -277.3605957 83.92919922 C-272.18289752 85.80416302 -272.18289752 85.80416302 -271.09057617 86.89648438 C-250.52791637 92.25698711 -228.72673214 93.05552337 -208.09057617 87.89648438 C-207.04385742 87.64511719 -205.99713867 87.39375 -204.91870117 87.13476562 C-199.72689013 85.80874902 -194.95142331 84.13995229 -190.09057617 81.89648438 C-189.03870117 81.44273437 -187.98682617 80.98898438 -186.90307617 80.52148438 C-186.33073242 80.27269531 -185.75838867 80.02390625 -185.16870117 79.76757812 C-183.54442312 79.08672473 -181.9058536 78.43994073 -180.26245117 77.80664062 C-174.39787528 75.50059508 -169.52047661 73.13878647 -164.71166992 69.03320312 C-163.09057617 67.89648438 -163.09057617 67.89648438 -160.09057617 67.89648438 C-160.09057617 67.23648438 -160.09057617 66.57648438 -160.09057617 65.89648438 C-159.3919043 65.57035156 -158.69323242 65.24421875 -157.97338867 64.90820312 C-157.06331055 64.47121094 -156.15323242 64.03421875 -155.21557617 63.58398438 C-154.3106543 63.15472656 -153.40573242 62.72546875 -152.47338867 62.28320312 C-149.82608141 60.97654557 -149.82608141 60.97654557 -148.09057617 57.89648438 C-147.43057617 57.89648438 -146.77057617 57.89648438 -146.09057617 57.89648438 C-146.09057617 57.23648438 -146.09057617 56.57648438 -146.09057617 55.89648438 C-144.11057617 55.23648438 -142.13057617 54.57648438 -140.09057617 53.89648438 C-140.09057617 53.23648438 -140.09057617 52.57648438 -140.09057617 51.89648438 C-139.43057617 51.89648438 -138.77057617 51.89648438 -138.09057617 51.89648438 C-138.09057617 51.23648438 -138.09057617 50.57648438 -138.09057617 49.89648438 C-137.43057617 49.89648438 -136.77057617 49.89648438 -136.09057617 49.89648438 C-136.09057617 49.23648438 -136.09057617 48.57648438 -136.09057617 47.89648438 C-130.67881147 43.89648438 -130.67881147 43.89648438 -128.09057617 43.89648438 C-128.09057617 43.23648438 -128.09057617 42.57648438 -128.09057617 41.89648438 C-122.67881147 37.89648438 -122.67881147 37.89648438 -120.09057617 37.89648438 C-119.88432617 37.32414062 -119.67807617 36.75179687 -119.46557617 36.16210938 C-117.56239429 33.02618468 -115.15316265 31.63422079 -112.09057617 29.64648438 C-111.01807617 28.94007813 -109.94557617 28.23367187 -108.84057617 27.50585938 C-106.09057617 25.89648438 -106.09057617 25.89648438 -104.09057617 25.89648438 C-104.09057617 25.23648438 -104.09057617 24.57648438 -104.09057617 23.89648438 C-101.45057617 23.23648438 -98.81057617 22.57648438 -96.09057617 21.89648438 C-96.09057617 21.23648438 -96.09057617 20.57648438 -96.09057617 19.89648438 C-88.98698495 17.32271944 -81.91965941 15.75337433 -74.49291992 14.43554688 C-73.67952148 14.27828125 -72.86612305 14.12101562 -72.02807617 13.95898438 C-71.29459961 13.82621094 -70.56112305 13.6934375 -69.80541992 13.55664062 C-69.23952148 13.33878906 -68.67362305 13.1209375 -68.09057617 12.89648438 C-67.76057617 11.90648437 -67.43057617 10.91648438 -67.09057617 9.89648438 C-83.59730146 10.30506668 -100.91273553 12.02079661 -114.09057617 22.89648438 C-114.95295898 23.58226562 -115.8153418 24.26804688 -116.70385742 24.97460938 C-121.77718659 29.05676714 -126.51402182 33.22685134 -131.03588867 37.90820312 C-134.17744221 40.94822356 -137.61997461 43.57550425 -141.08666992 46.23242188 C-143.1831403 47.74627808 -143.1831403 47.74627808 -144.09057617 49.89648438 C-144.82791992 50.17492187 -145.56526367 50.45335937 -146.32495117 50.74023438 C-149.63842655 52.12552917 -151.70613059 53.9671154 -154.34057617 56.39648438 C-155.21198242 57.19054687 -156.08338867 57.98460937 -156.98120117 58.80273438 C-159.13355145 60.71597472 -159.13355145 60.71597472 -160.09057617 62.89648438 C-160.83307617 62.99960938 -161.57557617 63.10273438 -162.34057617 63.20898438 C-166.03313481 64.13212403 -167.45748287 66.19916929 -170.09057617 68.89648438 C-175.24403749 71.70313869 -180.67444738 73.99862847 -186.02807617 76.39648438 C-186.89625977 76.78707031 -187.76444336 77.17765625 -188.65893555 77.58007812 C-191.13367477 78.69118553 -193.61183874 79.79433287 -196.09057617 80.89648438 C-196.73792725 81.19014893 -197.38527832 81.48381348 -198.05224609 81.78637695 C-206.29756437 85.45793312 -215.06822912 87.42721067 -224.09057617 86.89648438 C-223.43057617 86.56648438 -222.77057617 86.23648438 -222.09057617 85.89648438 C-222.09057617 85.23648438 -222.09057617 84.57648438 -222.09057617 83.89648438 C-221.22432617 83.62835938 -220.35807617 83.36023438 -219.46557617 83.08398438 C-216.10308927 81.98521394 -216.10308927 81.98521394 -213.15307617 80.39648438 C-210.09057617 78.89648438 -210.09057617 78.89648438 -206.88745117 78.06054688 C-202.65123689 76.76178982 -199.11988006 74.93512716 -195.27807617 72.77148438 C-188.33927859 68.89648438 -188.33927859 68.89648438 -186.09057617 68.89648438 C-186.09057617 68.23648438 -186.09057617 67.57648438 -186.09057617 66.89648438 C-185.49889648 66.58195312 -184.9072168 66.26742187 -184.29760742 65.94335938 C-179.87800934 63.54971082 -176.00132075 61.06735836 -172.09057617 57.89648438 C-169.1054997 56.28454308 -166.30781064 54.96889586 -163.09057617 53.89648438 C-163.09057617 53.23648438 -163.09057617 52.57648438 -163.09057617 51.89648438 C-162.10057617 51.89648438 -161.11057617 51.89648438 -160.09057617 51.89648438 C-160.09057617 51.23648438 -160.09057617 50.57648438 -160.09057617 49.89648438 C-156.62903771 46.89648438 -156.62903771 46.89648438 -154.09057617 46.89648438 C-154.09057617 46.23648438 -154.09057617 45.57648438 -154.09057617 44.89648438 C-150.62903771 41.89648438 -150.62903771 41.89648438 -148.09057617 41.89648438 C-148.09057617 41.23648438 -148.09057617 40.57648438 -148.09057617 39.89648438 C-146.77057617 39.56648438 -145.45057617 39.23648438 -144.09057617 38.89648438 C-144.02870117 38.17460937 -143.96682617 37.45273438 -143.90307617 36.70898438 C-142.82864952 32.9898152 -141.03324624 31.34870943 -138.09057617 28.89648438 C-137.10057617 28.89648438 -136.11057617 28.89648438 -135.09057617 28.89648438 C-135.09057617 28.23648438 -135.09057617 27.57648438 -135.09057617 26.89648438 C-134.43057617 26.89648438 -133.77057617 26.89648438 -133.09057617 26.89648438 C-132.43057617 25.57648438 -131.77057617 24.25648438 -131.09057617 22.89648438 C-130.10057617 22.89648438 -129.11057617 22.89648438 -128.09057617 22.89648438 C-127.88432617 22.31898438 -127.67807617 21.74148437 -127.46557617 21.14648438 C-125.57432395 18.05170802 -123.19021681 16.70460808 -120.09057617 14.89648438 C-119.43057617 14.89648438 -118.77057617 14.89648438 -118.09057617 14.89648438 C-118.09057617 14.23648438 -118.09057617 13.57648438 -118.09057617 12.89648438 C-117.43057617 12.89648438 -116.77057617 12.89648438 -116.09057617 12.89648438 C-116.09057617 12.23648438 -116.09057617 11.57648438 -116.09057617 10.89648438 C-114.11057617 10.40148437 -114.11057617 10.40148437 -112.09057617 9.89648438 C-112.09057617 9.23648438 -112.09057617 8.57648438 -112.09057617 7.89648438 C-111.10057617 7.89648438 -110.11057617 7.89648438 -109.09057617 7.89648438 C-109.09057617 7.23648438 -109.09057617 6.57648438 -109.09057617 5.89648438 C-107.67831691 5.22053122 -106.26054712 4.55608379 -104.84057617 3.89648438 C-104.05166992 3.52523437 -103.26276367 3.15398437 -102.44995117 2.77148438 C-100.09057617 1.89648438 -100.09057617 1.89648438 -96.09057617 1.89648438 C-96.09057617 1.23648438 -96.09057617 0.57648438 -96.09057617 -0.10351562 C-90.64557617 -1.09351563 -90.64557617 -1.09351563 -85.09057617 -2.10351562 C-85.09057617 -2.76351562 -85.09057617 -3.42351562 -85.09057617 -4.10351562 C-58.39200874 -10.83828939 -25.42408802 -11.98293134 0 0 Z " fill="#DCF6F0" transform="translate(448.090576171875,137.103515625)"/>
<path d="M0 0 C1.15363037 0.33136963 1.15363037 0.33136963 2.33056641 0.66943359 C4.99383538 1.43759753 7.65374518 2.21635941 10.3125 3 C11.16134766 3.24919189 12.01019531 3.49838379 12.88476562 3.75512695 C17.75341558 5.21831165 22.36925 6.90022672 27 9 C23.39962902 10.26268935 21.0203701 9.71079522 17.375 8.75 C3.8957777 5.51796548 -8.60466547 3.72653949 -22.5 3.6875 C-24.27129272 3.67940308 -24.27129272 3.67940308 -26.07836914 3.67114258 C-38.3857835 3.77121701 -52.28316473 5.26230842 -61.4453125 14.44921875 C-66.3326517 19.99285779 -66.26943448 24.72772491 -66.234375 31.87109375 C-65.90780977 36.23073956 -64.6991239 39.99492223 -63 44 C-62.34 44 -61.68 44 -61 44 C-61 44.66 -61 45.32 -61 46 C-60.34 46 -59.68 46 -59 46 C-59 46.66 -59 47.32 -59 48 C-58.29875 48.268125 -57.5975 48.53625 -56.875 48.8125 C-54 50 -54 50 -50.9375 51.5625 C-44.30027399 54.81050422 -37.27406623 54.63720489 -30 54 C-27.21537301 52.96312263 -25.42653139 51.7647501 -23 50 C-22.34 50 -21.68 50 -21 50 C-20.67 48.35 -20.34 46.7 -20 45 C-19.34 45 -18.68 45 -18 45 C-18 43.68 -18 42.36 -18 41 C-17.34 41 -16.68 41 -16 41 C-15.67 39.68 -15.34 38.36 -15 37 C-12.62614418 44.12156745 -13.889893 50.43421856 -17 57 C-18.485 57.495 -18.485 57.495 -20 58 C-20.165 58.66 -20.33 59.32 -20.5 60 C-20.665 60.66 -20.83 61.32 -21 62 C-22.485 62.495 -22.485 62.495 -24 63 C-24 63.66 -24 64.32 -24 65 C-25.72601379 65.81917642 -27.4559647 66.63006016 -29.1875 67.4375 C-30.15042969 67.88996094 -31.11335938 68.34242188 -32.10546875 68.80859375 C-41.56484033 72.70212726 -52.33520048 71.62096258 -62 69 C-62 68.34 -62 67.68 -62 67 C-62.59167969 66.81824219 -63.18335938 66.63648438 -63.79296875 66.44921875 C-64.58316406 66.19785156 -65.37335938 65.94648438 -66.1875 65.6875 C-66.96480469 65.44386719 -67.74210937 65.20023437 -68.54296875 64.94921875 C-76.82138332 61.75103951 -81.74764675 55.54260668 -85.625 47.72265625 C-89.66237223 37.52599742 -90.90587767 27.41567379 -87 17 C-86.34 17 -85.68 17 -85 17 C-84.773125 16.278125 -84.54625 15.55625 -84.3125 14.8125 C-82.70910575 11.37665518 -80.80298595 9.55383164 -78 7 C-77.4946875 6.50242188 -76.989375 6.00484375 -76.46875 5.4921875 C-56.99510806 -12.78731602 -23.17114922 -6.72710784 0 0 Z " fill="#CEF2FC" transform="translate(504,215)"/>
<path d="M0 0 C0.99 0.495 0.99 0.495 2 1 C1.28714844 1.6290625 0.57429688 2.258125 -0.16015625 2.90625 C-7.3802124 9.35862858 -14.02590624 15.62257893 -19 24 C-19.66 24 -20.32 24 -21 24 C-21.2784375 24.56460938 -21.556875 25.12921875 -21.84375 25.7109375 C-23.02066633 28.04091375 -24.24468357 30.33634382 -25.5 32.625 C-25.9228125 33.40101563 -26.345625 34.17703125 -26.78125 34.9765625 C-28 37 -28 37 -30 39 C-30.74560514 40.35515095 -31.45130662 41.73270034 -32.125 43.125 C-32.47820312 43.84945312 -32.83140625 44.57390625 -33.1953125 45.3203125 C-33.46085937 45.87460937 -33.72640625 46.42890625 -34 47 C-34.66 47 -35.32 47 -36 47 C-36 47.66 -36 48.32 -36 49 C-40.38547204 53.80850792 -46.12892844 57.29763305 -52 60 C-52.66 60 -53.32 60 -54 60 C-54 60.66 -54 61.32 -54 62 C-74.30098381 68.04710156 -90.71543419 66.55141345 -110 58 C-110 57.34 -110 56.68 -110 56 C-111.1446875 55.8453125 -111.1446875 55.8453125 -112.3125 55.6875 C-115.22636046 54.94209384 -116.02950397 54.15541061 -118 52 C-116.65035156 52.433125 -116.65035156 52.433125 -115.2734375 52.875 C-95.97790462 58.61793101 -76.01030851 57.92540726 -58 48.5625 C-51.21735313 44.66414046 -45.48293223 40.62352024 -40 35 C-39.030625 34.21625 -38.06125 33.4325 -37.0625 32.625 C-34.8107339 30.79150089 -32.97067179 28.86581562 -31.125 26.625 C-22.55974557 16.39913502 -10.73866849 7.8602625 0 0 Z " fill="#D0F1FA" transform="translate(406,224)"/>
<path d="M0 0 C0.99 0.495 0.99 0.495 2 1 C1.51789063 1.38671875 1.03578125 1.7734375 0.5390625 2.171875 C-0.40839844 2.95304688 -0.40839844 2.95304688 -1.375 3.75 C-2.00148438 4.26046875 -2.62796875 4.7709375 -3.2734375 5.296875 C-5.09560858 7.09431073 -5.90282611 8.71267138 -7 11 C-8.63260714 12.37482707 -10.30225062 13.70647667 -12 15 C-12.6084375 15.61359375 -13.216875 16.2271875 -13.84375 16.859375 C-16.15953886 19.15838278 -18.58470198 21.20259563 -21.125 23.25 C-21.99382812 23.95640625 -22.86265625 24.6628125 -23.7578125 25.390625 C-26 27 -26 27 -28 27 C-28 27.66 -28 28.32 -28 29 C-29.57421875 30.33203125 -29.57421875 30.33203125 -31.6875 31.8125 C-34.2984533 33.69257024 -36.42166514 35.43147131 -38.6875 37.75 C-41.08141223 40.0792119 -42.94235883 40.81091732 -46 42 C-46.33 42.99 -46.66 43.98 -47 45 C-49.51171875 46.53515625 -49.51171875 46.53515625 -52.6875 48.0625 C-54.24017578 48.82240234 -54.24017578 48.82240234 -55.82421875 49.59765625 C-58.85076118 50.93409996 -61.84922204 51.99804433 -65 53 C-65.96679688 53.34160156 -66.93359375 53.68320312 -67.9296875 54.03515625 C-84.75973809 59.90558504 -106.38439715 60.44723235 -123 53 C-123.66 52.01 -124.32 51.02 -125 50 C-114.44 50 -103.88 50 -93 50 C-93 51.65 -93 53.3 -93 55 C-86.71687298 55.19946435 -81.04155282 54.84752843 -75 53 C-74.67 52.67 -74.34 52.34 -74 52 C-72.00041636 51.95919217 -69.99954746 51.95745644 -68 52 C-67.67 51.01 -67.34 50.02 -67 49 C-65.35008418 48.29289322 -63.6792238 47.63437344 -62 47 C-60.96875 46.29875 -59.9375 45.5975 -58.875 44.875 C-56 43 -56 43 -53 43 C-53 42.34 -53 41.68 -53 41 C-47.25 38 -47.25 38 -45 38 C-46.32 36.35 -47.64 34.7 -49 33 C-39.62144703 26.15826873 -39.62144703 26.15826873 -34.5625 23.8125 C-31.01990628 22.01012776 -30.20548157 21.06849609 -28 18 C-25.68000464 16.58222506 -23.39262348 15.27357909 -21 14 C-20.195625 13.505 -19.39125 13.01 -18.5625 12.5 C-16.38017677 11.2225425 -14.22857973 10.18177109 -11.9375 9.125 C-8.28867053 7.34508319 -6.42107579 5.28574571 -4 2 C-1.875 0.625 -1.875 0.625 0 0 Z M-51 34 C-50.01 34.495 -50.01 34.495 -49 35 C-49.99 35.495 -49.99 35.495 -51 36 C-51 35.34 -51 34.68 -51 34 Z " fill="#DCF6F7" transform="translate(397,214)"/>
<path d="M0 0 C0 0.33 0 0.66 0 1 C-1.60270752 0.98428955 -1.60270752 0.98428955 -3.23779297 0.96826172 C-7.24475688 0.93175245 -11.25170642 0.90898826 -15.25878906 0.89013672 C-16.98505129 0.88014901 -18.71129691 0.86655417 -20.4375 0.84912109 C-34.80238295 0.70779991 -49.12581655 0.76452399 -61 10 C-65.96129372 14.97470262 -67.14170454 18.78366428 -67.25 25.6875 C-67.22249696 31.29124509 -66.17980386 35.8618909 -64 41 C-63.34 41 -62.68 41 -62 41 C-62 41.66 -62 42.32 -62 43 C-61.34 43 -60.68 43 -60 43 C-60 43.66 -60 44.32 -60 45 C-59.29875 45.268125 -58.5975 45.53625 -57.875 45.8125 C-55 47 -55 47 -51.9375 48.5625 C-45.3038592 51.80874975 -38.27030657 51.64514666 -31 51 C-28.27740854 49.94637924 -26.40389853 48.69365578 -24 47 C-23.01 47.495 -23.01 47.495 -22 48 C-22.66 49.65 -23.32 51.3 -24 53 C-37.61520813 54.31005439 -50.80630567 55.54847744 -63 48 C-66.39099378 45.00330782 -68.97110863 42.05778274 -71 38 C-71 37.01 -71 36.02 -71 35 C-71.66 35 -72.32 35 -73 35 C-75.51007907 25.5872035 -73.74157294 17.78601503 -70 9 C-69.34 9 -68.68 9 -68 9 C-68 8.34 -68 7.68 -68 7 C-51.31006073 -10.64797204 -20.73926515 -3.73108311 0 0 Z " fill="#C5DBED" transform="translate(505,218)"/>
<path d="M0 0 C0.99 0.33 1.98 0.66 3 1 C-2.75 5 -2.75 5 -5 5 C-5 5.66 -5 6.32 -5 7 C-9.16376375 10.20208227 -15.71388603 15 -21 15 C-21 15.66 -21 16.32 -21 17 C-24.37765529 18.45399067 -27.75710342 19.90347855 -31.140625 21.34375 C-33.47680712 22.34002905 -35.7948028 23.35945855 -38.109375 24.40625 C-63.28328813 35.5644169 -91.54046524 32.78506622 -118 28.5 C-118.73549072 28.38164795 -119.47098145 28.2632959 -120.22875977 28.14135742 C-124.03826606 27.48300689 -127.47530155 26.59712898 -131 25 C-130.34 24.34 -129.68 23.68 -129 23 C-127.18359375 23.3125 -127.18359375 23.3125 -125 24 C-102.78437479 28.74724545 -77.26910205 29.03249798 -55.3125 22.5859375 C-53 22 -53 22 -49 22 C-49 21.34 -49 20.68 -49 20 C-47.989375 19.87625 -46.97875 19.7525 -45.9375 19.625 C-39.18770869 18.55360455 -33.03076668 16.3521135 -26.75 13.75 C-26.00637207 13.44280029 -25.26274414 13.13560059 -24.49658203 12.8190918 C-17.66546434 9.94653061 -11.2030108 6.57453798 -4.8828125 2.703125 C-3.29165195 1.73918542 -1.64998713 0.8593683 0 0 Z " fill="#F0FDEE" transform="translate(317,212)"/>
<path d="M0 0 C-1.5588334 3.82622743 -3.95433582 6.25147379 -7 9 C-7.99 9.33 -8.98 9.66 -10 10 C-10 10.66 -10 11.32 -10 12 C-10.66 12 -11.32 12 -12 12 C-12.33 12.99 -12.66 13.98 -13 15 C-13.66 15 -14.32 15 -15 15 C-15.226875 15.886875 -15.45375 16.77375 -15.6875 17.6875 C-17.18389846 21.4641247 -18.92491737 23.38617976 -22 26 C-22.66 26 -23.32 26 -24 26 C-24 26.66 -24 27.32 -24 28 C-25.79296875 29.69140625 -25.79296875 29.69140625 -28.1875 31.5625 C-28.96480469 32.18253906 -29.74210937 32.80257812 -30.54296875 33.44140625 C-33.09951127 35.063124 -35.02120511 35.61376194 -38 36 C-38.33 36.99 -38.66 37.98 -39 39 C-55.93839092 46.00495005 -76.91241442 44.81250067 -94 39 C-96.96484375 37.36328125 -96.96484375 37.36328125 -99 36 C-97 35 -97 35 -94.515625 35.77734375 C-92.89914062 36.35162109 -92.89914062 36.35162109 -91.25 36.9375 C-73.78738963 42.08834191 -55.05061876 39.90663552 -39 31.5625 C-32.21735313 27.66414046 -26.48293223 23.62352024 -21 18 C-20.030625 17.21625 -19.06125 16.4325 -18.0625 15.625 C-15.78863395 13.77458349 -13.92961445 11.82190711 -12.0625 9.5625 C-4.11472039 0 -4.11472039 0 0 0 Z " fill="#C7DCEC" transform="translate(387,241)"/>
<path d="M0 0 C1.15363037 0.33136963 1.15363037 0.33136963 2.33056641 0.66943359 C4.99383538 1.43759753 7.65374518 2.21635941 10.3125 3 C11.16134766 3.24919189 12.01019531 3.49838379 12.88476562 3.75512695 C17.75341558 5.21831165 22.36925 6.90022672 27 9 C23.30618166 10.32302628 20.74377896 9.65556049 17 8.6875 C11.47567388 7.31422119 5.99958862 6.31120107 0.36328125 5.52734375 C-2 5 -2 5 -4 3 C-5.92439265 2.46328614 -5.92439265 2.46328614 -8.1484375 2.18359375 C-8.98407227 2.05960205 -9.81970703 1.93561035 -10.68066406 1.80786133 C-11.56979492 1.68564209 -12.45892578 1.56342285 -13.375 1.4375 C-14.27444336 1.30819092 -15.17388672 1.17888184 -16.10058594 1.0456543 C-22.72035821 0.11686578 -29.32498719 -0.60655412 -36 -1 C-35.67 -1.66 -35.34 -2.32 -35 -3 C-37.56278699 -3.05420701 -40.12441483 -3.09377007 -42.6875 -3.125 C-43.40873047 -3.14175781 -44.12996094 -3.15851563 -44.87304688 -3.17578125 C-49.09066447 -3.21429831 -52.18435299 -2.76957542 -56 -1 C-58.8125 -0.875 -58.8125 -0.875 -61 -1 C-61 -1.66 -61 -2.32 -61 -3 C-40.85713063 -8.79452407 -19.86704893 -5.76785292 0 0 Z " fill="#D3F1F7" transform="translate(504,215)"/>
<path d="M0 0 C10.56 0 21.12 0 32 0 C32 1.65 32 3.3 32 5 C32.99 5.33 33.98 5.66 35 6 C35 6.33 35 6.66 35 7 C23.59081336 7.43787923 12.65465593 7.80504091 2 3 C1.34 2.01 0.68 1.02 0 0 Z " fill="#DEF9F9" transform="translate(272,264)"/>
<path d="M0 0 C1.03060547 0.2165625 1.03060547 0.2165625 2.08203125 0.4375 C2.98308594 0.623125 3.88414062 0.80875 4.8125 1 C5.70582031 1.185625 6.59914062 1.37125 7.51953125 1.5625 C10.07260693 2.08684843 10.07260693 2.08684843 13 2 C13.99 2.33 14.98 2.66 16 3 C17.33106622 3.34227417 18.66400079 3.67751743 20 4 C20.33 3.01 20.66 2.02 21 1 C21.99 1 22.98 1 24 1 C23.67 2.32 23.34 3.64 23 5 C25.08304538 5.05418326 27.16649768 5.09287551 29.25 5.125 C30.41015625 5.14820313 31.5703125 5.17140625 32.765625 5.1953125 C35.92930771 5.00426886 37.2686607 4.38881659 40 3 C42.81298333 3.31825724 45.27100821 4.18130246 48 5 C48 5.33 48 5.66 48 6 C40.57317599 7.13971387 33.19292247 7.29096982 25.6875 7.375 C24.43259766 7.41238281 23.17769531 7.44976562 21.88476562 7.48828125 C13.43973981 7.56749462 7.34955754 6.20218856 0 2 C0 1.34 0 0.68 0 0 Z " fill="#D8F3F7" transform="translate(168,208)"/>
<path d="M0 0 C0.66 0.33 1.32 0.66 2 1 C1.28714844 1.6290625 0.57429688 2.258125 -0.16015625 2.90625 C-7.3802124 9.35862858 -14.02590624 15.62257893 -19 24 C-19.66 24 -20.32 24 -21 24 C-21.28875 24.61875 -21.5775 25.2375 -21.875 25.875 C-23 28 -23 28 -25 30 C-25.66 28.68 -26.32 27.36 -27 26 C-26.38125 25.7525 -25.7625 25.505 -25.125 25.25 C-21.97802183 23.39883637 -21.31525433 21.14744742 -20.37109375 17.7109375 C-18.43472264 13.8823291 -15.59101179 11.95435334 -12.1875 9.4375 C-10.95177442 8.49876176 -9.71609651 7.55996075 -8.48046875 6.62109375 C-7.89056152 6.17878418 -7.3006543 5.73647461 -6.69287109 5.28076172 C-4.42552833 3.56537664 -2.20967042 1.78878082 0 0 Z " fill="#D5EEF8" transform="translate(406,224)"/>
<path d="M0 0 C6.3012091 0.59872439 12.02342407 2.00912123 18.0625 3.875 C18.92166016 4.13152344 19.78082031 4.38804687 20.66601562 4.65234375 C25.60187905 6.15308756 30.30088284 7.87041366 35 10 C31.30618166 11.32302628 28.74377896 10.65556049 25 9.6875 C19.47567388 8.31422119 13.99958862 7.31120107 8.36328125 6.52734375 C6 6 6 6 4 4 C2.01178687 3.60235737 0.01055661 3.26224651 -2 3 C-1.34 2.01 -0.68 1.02 0 0 Z " fill="#D6ECF5" transform="translate(496,214)"/>
<path d="M0 0 C1.32 0 2.64 0 4 0 C4 0.66 4 1.32 4 2 C4.99 2 5.98 2 7 2 C7 1.34 7 0.68 7 0 C9.64 0 12.28 0 15 0 C16.24546405 2.49092811 15.7767578 3.41080733 15 6 C15.598125 6.103125 16.19625 6.20625 16.8125 6.3125 C19.28243264 7.08876455 20.32251235 8.07088921 22 10 C22.66 9.67 23.32 9.34 24 9 C25.32 11.31 26.64 13.62 28 16 C27.34 16 26.68 16 26 16 C26 15.34 26 14.68 26 14 C24.35 14 22.7 14 21 14 C21 13.01 21 12.02 21 11 C20.4225 10.9175 19.845 10.835 19.25 10.75 C17 10 17 10 15.3125 8.09375 C12.31514996 5.37993308 9.643653 4.75946559 5.75 3.75 C4.48671875 3.41484375 3.2234375 3.0796875 1.921875 2.734375 C0.95765625 2.49203125 -0.0065625 2.2496875 -1 2 C-0.67 1.34 -0.34 0.68 0 0 Z " fill="#D4F2F6" transform="translate(97,159)"/>
<path d="M0 0 C0.66 0.33 1.32 0.66 2 1 C1 4 1 4 -0.79296875 5.2109375 C-20.55142668 14.81619111 -20.55142668 14.81619111 -26 13 C-25.44570312 12.82984375 -24.89140625 12.6596875 -24.3203125 12.484375 C-19.82587449 11.21351008 -19.82587449 11.21351008 -16.875 7.9375 C-16.58625 7.298125 -16.2975 6.65875 -16 6 C-13.4375 4.9375 -13.4375 4.9375 -10 4 C-8.39265607 3.48905623 -6.78856569 2.96778927 -5.1875 2.4375 C-4.41792969 2.18871094 -3.64835937 1.93992188 -2.85546875 1.68359375 C-1.01186786 1.15155392 -1.01186786 1.15155392 0 0 Z " fill="#D5F1F5" transform="translate(257,195)"/>
<path d="M0 0 C10.56 0 21.12 0 32 0 C32 0.99 32 1.98 32 3 C29.03013448 3.89506817 26.74360212 4.03315169 23.671875 3.66015625 C22.87265625 3.56669922 22.0734375 3.47324219 21.25 3.37695312 C20.425 3.27318359 19.6 3.16941406 18.75 3.0625 C17.48929687 2.91264648 17.48929687 2.91264648 16.203125 2.75976562 C14.13463723 2.51295742 12.06720428 2.25733716 10 2 C10 2.66 10 3.32 10 4 C8.72125 3.896875 7.4425 3.79375 6.125 3.6875 C5.04605469 3.60048828 5.04605469 3.60048828 3.9453125 3.51171875 C2 3 2 3 0 0 Z " fill="#E9FAF3" transform="translate(272,264)"/>
<path d="M0 0 C2.50081113 3.75121669 2.43285285 7.65482327 2 12 C1 15.5 1 15.5 0 18 C-0.66 16.68 -1.32 15.36 -2 14 C-2.99 14 -3.98 14 -5 14 C-4.67 12.02 -4.34 10.04 -4 8 C-3.34 8 -2.68 8 -2 8 C-2 6.68 -2 5.36 -2 4 C-1.34 4 -0.68 4 0 4 C0 2.68 0 1.36 0 0 Z " fill="#DAF1F6" transform="translate(488,252)"/>
<path d="M0 0 C0.99 0.33 1.98 0.66 3 1 C1.02 2.32 -0.96 3.64 -3 5 C-2.67 4.01 -2.34 3.02 -2 2 C-1.34 2 -0.68 2 0 2 C0 1.34 0 0.68 0 0 Z M-7 7 C-6.34 7.33 -5.68 7.66 -5 8 C-6.32 8.99 -7.64 9.98 -9 11 C-8.34 9.68 -7.68 8.36 -7 7 Z M-11 11 C-10.34 11.33 -9.68 11.66 -9 12 C-9.92683594 12.77085937 -10.85367187 13.54171875 -11.80859375 14.3359375 C-13.01837823 15.34878032 -14.22800552 16.3618109 -15.4375 17.375 C-16.35499023 18.13683594 -16.35499023 18.13683594 -17.29101562 18.9140625 C-20.60744935 21.56675456 -20.60744935 21.56675456 -23 25 C-24.32 24.67 -25.64 24.34 -27 24 C-21.85963514 19.3791401 -16.59363406 15.06133537 -11 11 Z " fill="#ECFCEF" transform="translate(327,162)"/>
<path d="M0 0 C0.598125 0.20625 1.19625 0.4125 1.8125 0.625 C-0.85416667 1.95833333 -3.52083333 3.29166667 -6.1875 4.625 C-5.03076352 1.15479057 -3.91311293 -0.67081936 0 0 Z M-8.1875 4.625 C-7.5275 4.955 -6.8675 5.285 -6.1875 5.625 C-8.07545796 7.42563614 -9.97206911 9.21530514 -11.875 11 C-12.67067383 11.76183594 -12.67067383 11.76183594 -13.48242188 12.5390625 C-16.54662035 15.39647457 -19.0981645 17.36557571 -23.1875 18.625 C-22.548125 17.84125 -21.90875 17.0575 -21.25 16.25 C-19.20607687 13.82960719 -19.20607687 13.82960719 -18.1875 11.625 C-16.90714216 10.56413208 -15.58915888 9.54810156 -14.25 8.5625 C-13.53972656 8.03527344 -12.82945312 7.50804687 -12.09765625 6.96484375 C-10.1875 5.625 -10.1875 5.625 -8.1875 4.625 Z " fill="#E8F9ED" transform="translate(330.1875,125.375)"/>
<path d="M0 0 C1.00417969 0.13277344 2.00835937 0.26554688 3.04296875 0.40234375 C11.68422258 1.52494279 20.30073962 2.43395224 29 3 C28.67 3.66 28.34 4.32 28 5 C6.65609426 5.61079539 6.65609426 5.61079539 0 0 Z " fill="#EEFCF3" transform="translate(200,245)"/>
<path d="M0 0 C6.16618181 -0.40214229 11.17745757 1.03181664 17 3 C17 3.66 17 4.32 17 5 C14.72886197 4.85899143 12.45809275 4.71203245 10.1875 4.5625 C8.92292969 4.48128906 7.65835937 4.40007812 6.35546875 4.31640625 C3 4 3 4 0 3 C0 2.01 0 1.02 0 0 Z " fill="#E7F5EE" transform="translate(391,115)"/>
<path d="M0 0 C0.66 0.33 1.32 0.66 2 1 C0.29639246 2.588417 -1.41311829 4.17050381 -3.125 5.75 C-4.07632812 6.63171875 -5.02765625 7.5134375 -6.0078125 8.421875 C-8.88074759 10.89724989 -11.81044598 12.95725192 -15 15 C-16.34175973 15.98866506 -17.67896002 16.9838154 -19 18 C-19 17.01 -19 16.02 -19 15 C-16.81195145 13.06066062 -14.64837483 11.30565534 -12.3125 9.5625 C-11.05852778 8.60555519 -9.80462043 7.64852537 -8.55078125 6.69140625 C-7.94830566 6.23652832 -7.34583008 5.78165039 -6.72509766 5.31298828 C-4.45089579 3.58207155 -2.22203918 1.79717509 0 0 Z " fill="#D7E6EA" transform="translate(406,224)"/>
<path d="M0 0 C0.66 0.33 1.32 0.66 2 1 C-2.87776102 5.84639278 -7.34969294 8.28087301 -14 10 C-14 10.66 -14 11.32 -14 12 C-15.32 12.33 -16.64 12.66 -18 13 C-18 12.34 -18 11.68 -18 11 C-17.34 11 -16.68 11 -16 11 C-16 10.34 -16 9.68 -16 9 C-10.25 6 -10.25 6 -8 6 C-7.67 4.68 -7.34 3.36 -7 2 C-6.030625 1.855625 -5.06125 1.71125 -4.0625 1.5625 C-1.13513227 1.32437659 -1.13513227 1.32437659 0 0 Z " fill="#DFF3F3" transform="translate(280,183)"/>
<path d="M0 0 C0.71220703 0.09265137 1.42441406 0.18530273 2.15820312 0.28076172 C7.97133531 1.1237974 13.16017296 2.76170824 18.4375 5.375 C14.74368166 6.69802628 12.18127896 6.03056049 8.4375 5.0625 C2.14078132 3.50793072 -4.15391602 2.35649484 -10.5625 1.375 C-6.77204439 -1.15197041 -4.28742143 -0.59283597 0 0 Z " fill="#CFDFE6" transform="translate(512.5625,218.625)"/>
<path d="M0 0 C-2.42130331 2.42130331 -3.80111377 2.52840504 -7.125 3.125 C-8.49011719 3.37636719 -8.49011719 3.37636719 -9.8828125 3.6328125 C-10.58148438 3.75398437 -11.28015625 3.87515625 -12 4 C-11 2 -11 2 -8.25 0.875 C-5.29813104 0.08026605 -3.02780163 -0.17810598 0 0 Z M-17 3 C-14.25 3.25 -14.25 3.25 -12 4 C-12.57234375 4.26554688 -13.1446875 4.53109375 -13.734375 4.8046875 C-16.1076012 6.05676891 -18.12213286 7.4936352 -20.25 9.125 C-20.95640625 9.66382813 -21.6628125 10.20265625 -22.390625 10.7578125 C-22.92171875 11.16773438 -23.4528125 11.57765625 -24 12 C-24.66 11.67 -25.32 11.34 -26 11 C-24.88625 10.13375 -24.88625 10.13375 -23.75 9.25 C-20.99300321 7.12523798 -20.99300321 7.12523798 -19 4.6875 C-18.34 4.130625 -17.68 3.57375 -17 3 Z " fill="#EAFAEC" transform="translate(358,148)"/>
<path d="M0 0 C0.99 0.33 1.98 0.66 3 1 C-10.85035017 15.10578695 -10.85035017 15.10578695 -15 18 C-15.99 18 -16.98 18 -18 18 C-16.71937515 16.2925002 -15.38232443 14.62626404 -14 13 C-13.34 13 -12.68 13 -12 13 C-12 12.34 -12 11.68 -12 11 C-10.23645665 9.44273602 -8.41336392 7.95239767 -6.5625 6.5 C-2.723054 3.71660656 -2.723054 3.71660656 0 0 Z " fill="#ECFBEC" transform="translate(344,196)"/>
<path d="M0 0 C5.81510775 0.97684616 10.82045473 2.04025984 16 5 C17.33043906 5.67242407 18.66327121 6.34016792 20 7 C12.11049093 7.64668107 6.95794893 5.64154337 0 2 C0 1.34 0 0.68 0 0 Z " fill="#EEFDFE" transform="translate(168,208)"/>
<path d="M0 0 C0.66 0.33 1.32 0.66 2 1 C0.71034824 2.37562854 -0.62689293 3.70766393 -2 5 C-2.66 5 -3.32 5 -4 5 C-4 5.66 -4 6.32 -4 7 C-5.96875 8.7265625 -5.96875 8.7265625 -8.5 10.625 C-9.75296875 11.57246094 -9.75296875 11.57246094 -11.03125 12.5390625 C-11.6809375 13.02117187 -12.330625 13.50328125 -13 14 C-13.33 13.01 -13.66 12.02 -14 11 C-12.37982158 9.66081194 -10.75370657 8.3288031 -9.125 7 C-8.22007812 6.2575 -7.31515625 5.515 -6.3828125 4.75 C-4 3 -4 3 -2 3 C-2 2.34 -2 1.68 -2 1 C-1.34 0.67 -0.68 0.34 0 0 Z " fill="#D8EFF3" transform="translate(373,236)"/>
<path d="M0 0 C0 6 0 6 -2.3125 8.625 C-5 11 -5 11 -8 12 C-9.21869929 14.50447516 -9.21869929 14.50447516 -10 17 C-10.33 16.01 -10.66 15.02 -11 14 C-10.07421875 12.17578125 -10.07421875 12.17578125 -8.6875 10.3125 C-8.01267578 9.37857422 -8.01267578 9.37857422 -7.32421875 8.42578125 C-6.88722656 7.95527344 -6.45023437 7.48476562 -6 7 C-5.34 7 -4.68 7 -4 7 C-3.71125 6.21625 -3.4225 5.4325 -3.125 4.625 C-2 2 -2 2 0 0 Z " fill="#E7F9FC" transform="translate(391,241)"/>
<path d="M0 0 C-3.87861846 2.14919118 -6.55471458 2 -11 2 C-13.64284821 2.51509785 -16.25004682 3.10950625 -18.86328125 3.7578125 C-19.92095703 3.87769531 -19.92095703 3.87769531 -21 4 C-21.66 3.34 -22.32 2.68 -23 2 C-15.84731379 -2.29161172 -7.90347627 -0.84355658 0 0 Z " fill="#ECFDED" transform="translate(380,117)"/>
<path d="M0 0 C0.66 0.33 1.32 0.66 2 1 C1.39671875 1.39832031 0.7934375 1.79664063 0.171875 2.20703125 C-0.62734375 2.73683594 -1.4265625 3.26664063 -2.25 3.8125 C-3.03890625 4.33457031 -3.8278125 4.85664063 -4.640625 5.39453125 C-6.81092481 6.87134122 -8.91413768 8.40689873 -11 10 C-11.66 9.34 -12.32 8.68 -13 8 C-11.3990869 6.84962529 -9.79414775 5.70485184 -8.1875 4.5625 C-7.29417969 3.92441406 -6.40085937 3.28632813 -5.48046875 2.62890625 C-3 1 -3 1 0 0 Z M-15 9 C-14.01 9.495 -14.01 9.495 -13 10 C-13.99 10.495 -13.99 10.495 -15 11 C-15 10.34 -15 9.68 -15 9 Z " fill="#E8FBF3" transform="translate(361,239)"/>
<path d="M0 0 C2.12493141 -0.02693575 4.24995912 -0.04636628 6.375 -0.0625 C7.55835937 -0.07410156 8.74171875 -0.08570313 9.9609375 -0.09765625 C13 0 13 0 15 1 C14.67 1.66 14.34 2.32 14 3 C4.81380417 3.15569823 4.81380417 3.15569823 1 2 C0.67 1.34 0.34 0.68 0 0 Z " fill="#F4FDF3" transform="translate(97,139)"/>
<path d="M0 0 C0.928125 0.33 1.85625 0.66 2.8125 1 C5.92029291 2.14967004 5.92029291 2.14967004 9 2 C10.32 4.31 11.64 6.62 13 9 C12.34 9 11.68 9 11 9 C11 8.34 11 7.68 11 7 C9.35 7 7.7 7 6 7 C6 6.01 6 5.02 6 4 C5.38125 3.896875 4.7625 3.79375 4.125 3.6875 C2 3 2 3 0 0 Z " fill="#E3F6FA" transform="translate(112,166)"/>
<path d="M0 0 C0.66 0.33 1.32 0.66 2 1 C-6.261959 8.66742597 -6.261959 8.66742597 -11 10 C-10.07347299 8.82460004 -9.13336613 7.65989423 -8.1875 6.5 C-7.40439453 5.52546875 -7.40439453 5.52546875 -6.60546875 4.53125 C-5 3 -5 3 -2 3 C-2 2.34 -2 1.68 -2 1 C-1.34 0.67 -0.68 0.34 0 0 Z " fill="#EEFDED" transform="translate(362,184)"/>
<path d="M0 0 C0.66 0.33 1.32 0.66 2 1 C0.68 1.99 -0.64 2.98 -2 4 C-1.34 2.68 -0.68 1.36 0 0 Z M-4 4 C-3.01 4.495 -3.01 4.495 -2 5 C-2.99 5.495 -2.99 5.495 -4 6 C-4 5.34 -4 4.68 -4 4 Z M-7 6 C-6.01 6.33 -5.02 6.66 -4 7 C-5.375 8.5 -5.375 8.5 -7 10 C-7.66 10 -8.32 10 -9 10 C-9.33 10.99 -9.66 11.98 -10 13 C-10.99 13.33 -11.98 13.66 -13 14 C-11.55746343 10.63408134 -9.66735273 8.48952921 -7 6 Z " fill="#E8F8F5" transform="translate(317,160)"/>
<path d="M0 0 C4.29 0 8.58 0 13 0 C13 0.33 13 0.66 13 1 C5.5 2.5 5.5 2.5 -2 4 C-1.34 2.68 -0.68 1.36 0 0 Z " fill="#EDFBF3" transform="translate(98,144)"/>
<path d="M0 0 C2.31 0.33 4.62 0.66 7 1 C7 1.66 7 2.32 7 3 C-0.42857143 6.28571429 -0.42857143 6.28571429 -4 7 C-3.34 6.01 -2.68 5.02 -2 4 C-1.34 4 -0.68 4 0 4 C0 2.68 0 1.36 0 0 Z " fill="#E5F4F1" transform="translate(236,97)"/>
<path d="M0 0 C0 3 0 3 -2.1875 5.625 C-5.00654002 8.00552268 -6.39755548 8.69121904 -10 9 C-7.62722182 3.97529326 -4.78902145 2.43969017 0 0 Z " fill="#EBFCF2" transform="translate(376,228)"/>
<path d="M0 0 C0.66 0.33 1.32 0.66 2 1 C-0.51830747 4.12270126 -1.7261549 4.94523098 -5.75 5.75 C-7.35875 5.87375 -7.35875 5.87375 -9 6 C-9 5.34 -9 4.68 -9 4 C-7.54618103 3.30300448 -6.08677047 2.61766134 -4.625 1.9375 C-3.40683594 1.36322266 -3.40683594 1.36322266 -2.1640625 0.77734375 C-1.44992187 0.52082031 -0.73578125 0.26429688 0 0 Z " fill="#ECFDF0" transform="translate(296,232)"/>
<path d="M0 0 C0.66 0.33 1.32 0.66 2 1 C0.17328621 3.53926173 -1.66877878 5.9050512 -4 8 C-7.375 8.4375 -7.375 8.4375 -10 8 C-8.68 7.34 -7.36 6.68 -6 6 C-6 5.34 -6 4.68 -6 4 C-5.01 4 -4.02 4 -3 4 C-3 3.34 -3 2.68 -3 2 C-2.01 1.34 -1.02 0.68 0 0 Z " fill="#F2FDEE" transform="translate(323,215)"/>
<path d="M0 0 C-0.99 0.66 -1.98 1.32 -3 2 C-3.99 1.67 -4.98 1.34 -6 1 C-6.825 1.350625 -7.65 1.70125 -8.5 2.0625 C-9.325 2.371875 -10.15 2.68125 -11 3 C-11.99 2.34 -12.98 1.68 -14 1 C-9.22426677 -1.61895048 -5.15565119 -0.83119431 0 0 Z " fill="#E9FBEE" transform="translate(427,158)"/>
<path d="M0 0 C0.99 0.33 1.98 0.66 3 1 C-1.30769231 6.78461538 -1.30769231 6.78461538 -4.8125 7.875 C-5.8953125 7.936875 -5.8953125 7.936875 -7 8 C-7 6 -7 6 -5.57421875 4.45703125 C-4.95160156 3.91433594 -4.32898438 3.37164062 -3.6875 2.8125 C-3.07261719 2.26207031 -2.45773437 1.71164063 -1.82421875 1.14453125 C-1.22222656 0.76683594 -0.62023437 0.38914063 0 0 Z " fill="#E7F7EA" transform="translate(291,153)"/>
<path d="M0 0 C3.63 0.66 7.26 1.32 11 2 C11 2.66 11 3.32 11 4 C11.66 4.33 12.32 4.66 13 5 C11.02 5.33 9.04 5.66 7 6 C7 5.34 7 4.68 7 4 C4.69 3.01 2.38 2.02 0 1 C0 0.67 0 0.34 0 0 Z " fill="#E8F7F4" transform="translate(233,153)"/>
<path d="M0 0 C0.66 0.66 1.32 1.32 2 2 C0.88121617 3.17262904 -0.24523051 4.33795138 -1.375 5.5 C-2.00148438 6.1496875 -2.62796875 6.799375 -3.2734375 7.46875 C-5 9 -5 9 -7 9 C-5.71480435 6.13302508 -4.42870746 4.02392288 -2 2 C-1.34 2 -0.68 2 0 2 C0 1.34 0 0.68 0 0 Z " fill="#ECFAFB" transform="translate(69,151)"/>
<path d="M0 0 C4.84659077 0.59104765 8.60748167 1.97944157 13 4 C8.99799622 5.60080151 5.95443764 4.29279692 2 3 C2 2.34 2 1.68 2 1 C1.34 0.67 0.68 0.34 0 0 Z " fill="#DFE9EC" transform="translate(518,220)"/>
<path d="M0 0 C0.99 0.495 0.99 0.495 2 1 C1.01 1.495 1.01 1.495 0 2 C0 1.34 0 0.68 0 0 Z M-2 2 C-1.34 2 -0.68 2 0 2 C0.33 2.99 0.66 3.98 1 5 C0 6 0 6 -2.5625 6.0625 C-3.7690625 6.0315625 -3.7690625 6.0315625 -5 6 C-4.67 5.34 -4.34 4.68 -4 4 C-3.34 4 -2.68 4 -2 4 C-2 3.34 -2 2.68 -2 2 Z " fill="#E0F5F0" transform="translate(305,129)"/>
<path d="M0 0 C0.66 0.33 1.32 0.66 2 1 C1.34 2.65 0.68 4.3 0 6 C-1.32 6 -2.64 6 -4 6 C-3.6875 4.125 -3.6875 4.125 -3 2 C-2.01 1.34 -1.02 0.68 0 0 Z " fill="#CCE9EE" transform="translate(481,265)"/>
<path d="M0 0 C1.64767247 0.28109113 3.29313145 0.57518526 4.9375 0.875 C5.85402344 1.03742188 6.77054688 1.19984375 7.71484375 1.3671875 C8.46894531 1.57601562 9.22304687 1.78484375 10 2 C10.33 2.66 10.66 3.32 11 4 C9.54119891 3.85892253 8.08296449 3.71197585 6.625 3.5625 C5.40683594 3.44068359 5.40683594 3.44068359 4.1640625 3.31640625 C2 3 2 3 0 2 C0 1.34 0 0.68 0 0 Z " fill="#DBF4F9" transform="translate(168,208)"/>
<path d="M0 0 C0.33 0.99 0.66 1.98 1 3 C-0.65 3.66 -2.3 4.32 -4 5 C-4.66 4.34 -5.32 3.68 -6 3 C-4.02 2.01 -2.04 1.02 0 0 Z " fill="#F0F9F8" transform="translate(286,179)"/>
<path d="M0 0 C0.99 0.33 1.98 0.66 3 1 C0.36 2.98 -2.28 4.96 -5 7 C-5 6.01 -5 5.02 -5 4 C-2.6875 1.75 -2.6875 1.75 0 0 Z " fill="#E7F9EC" transform="translate(280,160)"/>
<path d="M0 0 C0.66 0.33 1.32 0.66 2 1 C2 1.66 2 2.32 2 3 C0.35 3.66 -1.3 4.32 -3 5 C-3 4.01 -3 3.02 -3 2 C-2.01 1.34 -1.02 0.68 0 0 Z " fill="#DEF5F1" transform="translate(283,147)"/>
</svg>
